<svg t="1571303403613" class="icon" viewBox="0 0 1024 1024" version="1.1" xmlns="http://www.w3.org/2000/svg" p-id="1172" width="200" height="200"><path d="M230.522 459.371c41.952 30.547 86.703 52.764 134.252 66.65L322.82 645.428c-5.595 22.217 2.796 44.433 22.376 52.763 19.577 8.331 41.953-2.775 47.548-24.992l44.751-133.294c19.577 2.775 41.953 2.775 61.533 2.775 30.768 0 61.533-2.775 89.5-8.33L638.877 673.2c8.39 22.217 27.967 30.547 47.548 22.217 19.577-8.332 27.967-33.323 22.376-52.764L664.047 514.91c44.753-16.66 89.5-41.653 131.457-72.2l100.69 108.302c13.986 16.661 39.157 16.661 53.143 0 13.98-16.66 13.98-41.653 0-58.314l-95.1-97.195c22.376-22.217 41.957-44.433 64.333-69.425 13.981-16.662 11.186-41.653-2.799-58.32-16.781-13.88-39.158-13.88-53.143 2.78-25.172 33.324-53.138 61.095-81.109 83.311l-8.391 8.33c-81.115 66.646-170.613 99.973-271.303 99.973-137.051 0-251.722-63.874-349.617-191.612-13.986-16.662-36.362-19.442-53.143-5.555-16.78 13.886-19.577 38.877-5.596 58.319 25.176 33.32 50.347 61.093 78.314 86.085L79.49 514.91c-13.986 16.665-13.986 41.657 0 58.319 13.981 16.66 39.156 16.66 53.138 0l97.895-113.858z" fill="#848FA9" p-id="1173"></path></svg>